<?xml version="1.0" encoding="utf-8"?>
<!-- Generator: Adobe Illustrator 22.0.0, SVG Export Plug-In . SVG Version: 6.00 Build 0)  -->
<svg version="1.1" id="Layer_1" xmlns="http://www.w3.org/2000/svg" xmlns:xlink="http://www.w3.org/1999/xlink" x="0px" y="0px"
	 width="24px" height="24px" viewBox="0 0 24 24" style="enable-background:new 0 0 24 24;" xml:space="preserve">
<style type="text/css">
	.st0{fill:#FFFFFF;}
</style>
<path class="st0" d="M10.1,16.1c2.3-0.5,4.4-1,3.4-2.9C10.4,7.2,12.7,4,16,4c3.4,0,5.6,3.3,2.5,9.1c-1.1,2,1.1,2.4,3.4,2.9
	c2,0.5,2.1,1.4,2.1,3.1l0,0.8H8C8,17.8,7.8,16.6,10.1,16.1z M0,20h6c0-6.5,3-3.7,3-8.9C9,9.1,7.7,8,6,8c-2.5,0-4.2,2.4-1.9,6.8
	c0.8,1.5-0.8,1.8-2.5,2.2C0.1,17.4,0,18.1,0,19.4C0,19.4,0,20,0,20z"/>
</svg>
