<?xml version="1.0" encoding="utf-8"?>
<!-- Generator: Adobe Illustrator 22.0.0, SVG Export Plug-In . SVG Version: 6.00 Build 0)  -->
<svg version="1.1" id="Layer_1" xmlns="http://www.w3.org/2000/svg" xmlns:xlink="http://www.w3.org/1999/xlink" x="0px" y="0px"
	 viewBox="0 0 64 64" style="enable-background:new 0 0 64 64;" xml:space="preserve">
<style type="text/css">
	.st0{fill:#FFFFFF;}
</style>
<path class="st0" d="M51.4,1.3H14c-2.5,0-4.6,2.1-4.6,4.6v52.9c0,2.5,2.1,4.6,4.6,4.6h37.4c2.5,0,4.6-2.1,4.6-4.6V5.8
	C56,3.3,53.9,1.3,51.4,1.3z M46.5,46.2c-0.5,0.4-1.1,0.7-1.7,1c-3,1.7-5.9,2.7-6.5,2.9c-0.1,0-0.1,0-0.2,0
	c-0.8-0.3-7.7-3.4-13.2-12.8c-5.4-9.4-4.6-17-4.5-17.8c0-0.1,0-0.1,0.1-0.2c0.4-0.4,2.8-2.4,5.8-4.1c0.6-0.3,1.2-0.7,1.7-0.9
	c0.1,0,0.1,0,0.2,0c0.1,0,0.1,0.1,0.1,0.1c1.7,3.9,2.4,8,2.5,8.8c0,0.1,0,0.2-0.1,0.3L27,25.4c0,0.2-0.9,4.4,2.1,9.6
	c3,5.2,7.1,6.6,7.3,6.6l3.5-2.3c0.1-0.1,0.2-0.1,0.3,0c0.6,0.5,3.8,3.1,6.4,6.5c0,0.1,0.1,0.1,0,0.2C46.6,46.1,46.6,46.2,46.5,46.2z
	"/>
</svg>
