<?xml version="1.0" encoding="utf-8"?>
<!-- Generator: Adobe Illustrator 22.0.0, SVG Export Plug-In . SVG Version: 6.00 Build 0)  -->
<svg version="1.1" id="Layer_1" xmlns="http://www.w3.org/2000/svg" xmlns:xlink="http://www.w3.org/1999/xlink" x="0px" y="0px"
	 viewBox="0 0 64 64" style="enable-background:new 0 0 64 64;" xml:space="preserve">
<style type="text/css">
	.st0{fill:#FFFFFF;}
</style>
<g>
	<rect x="19.3" y="4.2" class="st0" width="25.5" height="6.2"/>
	<path class="st0" d="M57.9,31.7c-4.5,2.8-9.9,4.8-15.7,5.8c-1.9,6.8-6.1,9.1-9.9,11.6c-3.8-2.5-8-4.8-9.9-11.5
		c-6.1-1-11.6-3-16.2-5.9c-1.9-1.2-3.6-2.5-5-3.9v26.7c0,2.6,2.1,4.6,4.6,4.6h52.6c2.6,0,4.6-2.1,4.6-4.6V27.8
		C61.5,29.2,59.8,30.5,57.9,31.7z"/>
	<path class="st0" d="M58.4,12.8H5.7c-2.6,0-4.6,2.1-4.6,4.6v4.7c1.1,1.6,2.6,3.2,4.4,4.7c4.2,3,9.7,5.3,16,6.6
		c-0.2-1.4-0.2-2.9-0.2-4.6c3.8-1.4,7.5-3.3,11-6c3.5,2.7,7.1,4.6,11,6c0,1.7-0.1,3.2-0.2,4.6c3.9-0.8,7.5-2,10.7-3.5
		c0.8-0.4,1.5-0.8,2.3-1.3c3.1-1.9,5.5-4.1,7.1-6.5v-4.7C63,14.9,60.9,12.8,58.4,12.8z"/>
</g>
</svg>
